<svg width="194" height="194" viewBox="0 0 194 194" fill="none" xmlns="http://www.w3.org/2000/svg">
<path d="M105.083 68.7083H72.7502C57.1251 68.7083 44.4585 56.0417 44.4585 40.4167C44.4585 24.7916 57.1251 12.125 72.7502 12.125H105.083V68.7083Z" fill="#E64A19"/>
<path d="M101.042 125.292H72.7502C57.1251 125.292 44.4585 112.625 44.4585 97.0002C44.4585 81.3751 57.1251 68.7085 72.7502 68.7085H101.042V125.292Z" fill="#7C4DFF"/>
<path d="M72.7502 181.875C57.1251 181.875 44.4585 169.208 44.4585 153.583C44.4585 137.958 57.1251 125.292 72.7502 125.292H101.042V153.583C101.042 169.208 88.3752 181.875 72.7502 181.875Z" fill="#66BB6A"/>
<path d="M129.333 68.7083H101.042V12.125H129.333C144.958 12.125 157.625 24.7916 157.625 40.4167C157.625 56.0417 144.958 68.7083 129.333 68.7083Z" fill="#FF7043"/>
<path d="M129.333 125.292C144.958 125.292 157.625 112.625 157.625 97.0002C157.625 81.3751 144.958 68.7085 129.333 68.7085C113.708 68.7085 101.042 81.3751 101.042 97.0002C101.042 112.625 113.708 125.292 129.333 125.292Z" fill="#29B6F6"/>
</svg>
